HIERARCHY
ROOT Hips
{
  OFFSET 5.72205e-005 65.662 3.42586
  CHANNELS 6 Xposition Yposition Zposition Zrotation Xrotation Yrotation
  JOINT Chest
  {
    OFFSET 0 8.7983 -4.7612
    CHANNELS 6 Xposition Yposition Zposition Zrotation Xrotation Yrotation
    JOINT Chest2
    {
      OFFSET 0 8.0291 0.4195
      CHANNELS 6 Xposition Yposition Zposition Zrotation Xrotation Yrotation
      JOINT Chest3
      {
        OFFSET 0 9.9351 -2.2114
        CHANNELS 6 Xposition Yposition Zposition Zrotation Xrotation Yrotation
        JOINT Neck
        {
          OFFSET 0 22.3885 -0.4656
          CHANNELS 6 Xposition Yposition Zposition Zrotation Xrotation Yrotation
          JOINT Head
          {
            OFFSET -0.0001 12.643 3.4389
            CHANNELS 6 Xposition Yposition Zposition Zrotation Xrotation Yrotation
            End Site
            {
              OFFSET 0.0001 17.6655 0.5274
            }
          }
        }
        JOINT LeftCollar
        {
          OFFSET 2.2603 21.606 7.4023
          CHANNELS 6 Xposition Yposition Zposition Zrotation Xrotation Yrotation
          JOINT LeftShoulder
          {
            OFFSET 13.5163 -1.1332 -5.0146
            CHANNELS 6 Xposition Yposition Zposition Zrotation Xrotation Yrotation
            JOINT LeftElbow
            {
              OFFSET -0.0995 -28.05 -0.2431
              CHANNELS 6 Xposition Yposition Zposition Zrotation Xrotation Yrotation
              JOINT LeftWrist
              {
                OFFSET 0.0679 -23.3996 -0.1402
                CHANNELS 6 Xposition Yposition Zposition Zrotation Xrotation Yrotation
                JOINT LeftFinger1
                {
                  OFFSET 0.7932 -9.069 2.5189
                  CHANNELS 6 Xposition Yposition Zposition Zrotation Xrotation Yrotation
                  JOINT LeftFinger11
                  {
                    OFFSET -0.8272 -3.3923 0.5977
                    CHANNELS 6 Xposition Yposition Zposition Zrotation Xrotation Yrotation
                    JOINT LeftFinger12
                    {
                      OFFSET -0.5649 -2.3158 0.4082
                      CHANNELS 6 Xposition Yposition Zposition Zrotation Xrotation Yrotation
                      End Site
                      {
                        OFFSET -0.4919 -1.6479 0.2673
                      }
                    }
                  }
                }
                JOINT LeftFinger2
                {
                  OFFSET 0.9159 -9.2044 0.2193
                  CHANNELS 6 Xposition Yposition Zposition Zrotation Xrotation Yrotation
                  JOINT LeftFinger21
                  {
                    OFFSET 0.0117 -4.1944 -0.0248
                    CHANNELS 6 Xposition Yposition Zposition Zrotation Xrotation Yrotation
                    JOINT LeftFinger22
                    {
                      OFFSET 0.0071 -2.3249 -0.0142
                      CHANNELS 6 Xposition Yposition Zposition Zrotation Xrotation Yrotation
                      End Site
                      {
                        OFFSET -0.1475 -2.0882 0.0028
                      }
                    }
                  }
                }
                JOINT LeftFinger3
                {
                  OFFSET 0.6113 -8.7231 -2.0637
                  CHANNELS 6 Xposition Yposition Zposition Zrotation Xrotation Yrotation
                  JOINT LeftFinger31
                  {
                    OFFSET -0.1927 -3.8059 -0.2383
                    CHANNELS 6 Xposition Yposition Zposition Zrotation Xrotation Yrotation
                    JOINT LeftFinger32
                    {
                      OFFSET -0.1091 -2.1688 -0.1362
                      CHANNELS 6 Xposition Yposition Zposition Zrotation Xrotation Yrotation
                      End Site
                      {
                        OFFSET -0.2358 -1.9176 -0.0906
                      }
                    }
                  }
                }
                JOINT LeftFinger4
                {
                  OFFSET -0.6151 -8.0947 -3.5641
                  CHANNELS 6 Xposition Yposition Zposition Zrotation Xrotation Yrotation
                  JOINT LeftFinger41
                  {
                    OFFSET -0.4882 -2.341 -0.6462
                    CHANNELS 6 Xposition Yposition Zposition Zrotation Xrotation Yrotation
                    JOINT LeftFinger42
                    {
                      OFFSET -0.3575 -1.7167 -0.4742
                      CHANNELS 6 Xposition Yposition Zposition Zrotation Xrotation Yrotation
                      End Site
                      {
                        OFFSET -0.4187 -1.5237 -0.3496
                      }
                    }
                  }
                }
                JOINT LeftFinger0
                {
                  OFFSET -1.42 -1.8761 1.4223
                  CHANNELS 6 Xposition Yposition Zposition Zrotation Xrotation Yrotation
                  JOINT LeftFinger01
                  {
                    OFFSET -1.1471 -3.4929 2.6334
                    CHANNELS 6 Xposition Yposition Zposition Zrotation Xrotation Yrotation
                    JOINT LeftFinger02
                    {
                      OFFSET -0.823 -2.3 1.6571
                      CHANNELS 6 Xposition Yposition Zposition Zrotation Xrotation Yrotation
                      End Site
                      {
                        OFFSET -0.5822 -1.6914 1.1582
                      }
                    }
                  }
                }
              }
            }
          }
        }
        JOINT RightCollar
        {
          OFFSET -2.2603 21.606 7.4023
          CHANNELS 6 Xposition Yposition Zposition Zrotation Xrotation Yrotation
          JOINT RightShoulder
          {
            OFFSET -13.5187 -1.1334 -5.0155
            CHANNELS 6 Xposition Yposition Zposition Zrotation Xrotation Yrotation
            JOINT RightElbow
            {
              OFFSET 0.0994 -28.0499 -0.2431
              CHANNELS 6 Xposition Yposition Zposition Zrotation Xrotation Yrotation
              JOINT RightWrist
              {
                OFFSET -0.0679 -23.3996 -0.1402
                CHANNELS 6 Xposition Yposition Zposition Zrotation Xrotation Yrotation
                JOINT RightFinger1
                {
                  OFFSET -0.7932 -9.0691 2.5189
                  CHANNELS 6 Xposition Yposition Zposition Zrotation Xrotation Yrotation
                  JOINT RightFinger11
                  {
                    OFFSET 0.8272 -3.3923 0.5977
                    CHANNELS 6 Xposition Yposition Zposition Zrotation Xrotation Yrotation
                    JOINT RightFinger12
                    {
                      OFFSET 0.565 -2.3158 0.4082
                      CHANNELS 6 Xposition Yposition Zposition Zrotation Xrotation Yrotation
                      End Site
                      {
                        OFFSET 0.4919 -1.6479 0.2673
                      }
                    }
                  }
                }
                JOINT RightFinger2
                {
                  OFFSET -0.916 -9.2044 0.2193
                  CHANNELS 6 Xposition Yposition Zposition Zrotation Xrotation Yrotation
                  JOINT RightFinger21
                  {
                    OFFSET -0.0117 -4.1944 -0.0248
                    CHANNELS 6 Xposition Yposition Zposition Zrotation Xrotation Yrotation
                    JOINT RightFinger22
                    {
                      OFFSET -0.0071 -2.3249 -0.0142
                      CHANNELS 6 Xposition Yposition Zposition Zrotation Xrotation Yrotation
                      End Site
                      {
                        OFFSET 0.1475 -2.0882 0.0028
                      }
                    }
                  }
                }
                JOINT RightFinger3
                {
                  OFFSET -0.6113 -8.7231 -2.0637
                  CHANNELS 6 Xposition Yposition Zposition Zrotation Xrotation Yrotation
                  JOINT RightFinger31
                  {
                    OFFSET 0.1927 -3.8059 -0.2383
                    CHANNELS 6 Xposition Yposition Zposition Zrotation Xrotation Yrotation
                    JOINT RightFinger32
                    {
                      OFFSET 0.1091 -2.1688 -0.1362
                      CHANNELS 6 Xposition Yposition Zposition Zrotation Xrotation Yrotation
                      End Site
                      {
                        OFFSET 0.2358 -1.9176 -0.0906
                      }
                    }
                  }
                }
                JOINT RightFinger4
                {
                  OFFSET 0.6151 -8.0947 -3.564
                  CHANNELS 6 Xposition Yposition Zposition Zrotation Xrotation Yrotation
                  JOINT RightFinger41
                  {
                    OFFSET 0.4882 -2.341 -0.6462
                    CHANNELS 6 Xposition Yposition Zposition Zrotation Xrotation Yrotation
                    JOINT RightFinger42
                    {
                      OFFSET 0.3574 -1.7166 -0.4742
                      CHANNELS 6 Xposition Yposition Zposition Zrotation Xrotation Yrotation
                      End Site
                      {
                        OFFSET 0.4187 -1.5237 -0.3496
                      }
                    }
                  }
                }
                JOINT RightFinger0
                {
                  OFFSET 1.4199 -1.8761 1.4221
                  CHANNELS 6 Xposition Yposition Zposition Zrotation Xrotation Yrotation
                  JOINT RightFinger01
                  {
                    OFFSET 1.1472 -3.4929 2.6336
                    CHANNELS 6 Xposition Yposition Zposition Zrotation Xrotation Yrotation
                    JOINT RightFinger02
                    {
                      OFFSET 0.8229 -2.3 1.6571
                      CHANNELS 6 Xposition Yposition Zposition Zrotation Xrotation Yrotation
                      End Site
                      {
                        OFFSET 0.5822 -1.6914 1.1582
                      }
                    }
                  }
                }
              }
            }
          }
        }
      }
    }
  }
  JOINT RightHip
  {
    OFFSET -9.412 3.9771 -0.7758
    CHANNELS 6 Xposition Yposition Zposition Zrotation Xrotation Yrotation
    JOINT RightKnee
    {
      OFFSET -0.7531 -40.938 0
      CHANNELS 6 Xposition Yposition Zposition Zrotation Xrotation Yrotation
      JOINT RightAnkle
      {
        OFFSET 0 -40.1986 0
        CHANNELS 6 Xposition Yposition Zposition Zrotation Xrotation Yrotation
        JOINT RightToe
        {
          OFFSET 0 -4.4182 9.239
          CHANNELS 6 Xposition Yposition Zposition Zrotation Xrotation Yrotation
          End Site
          {
            OFFSET 0 0 6.1981
          }
        }
      }
    }
  }
  JOINT LeftHip
  {
    OFFSET 9.4119 3.9773 -0.7758
    CHANNELS 6 Xposition Yposition Zposition Zrotation Xrotation Yrotation
    JOINT LeftKnee
    {
      OFFSET 0.7532 -40.9383 0
      CHANNELS 6 Xposition Yposition Zposition Zrotation Xrotation Yrotation
      JOINT LeftAnkle
      {
        OFFSET 0 -40.1986 0
        CHANNELS 6 Xposition Yposition Zposition Zrotation Xrotation Yrotation
        JOINT LeftToe
        {
          OFFSET 0 -4.4182 9.239
          CHANNELS 6 Xposition Yposition Zposition Zrotation Xrotation Yrotation
          End Site
          {
            OFFSET 0 0 6.1981
          }
        }
      }
    }
  }
}
MOTION
Frames:	4
Frame Time:	0.0333333
5.72205e-005 65.662 3.42586 0 0 -0 0 8.7983 -4.7612 0 0 -0 0 8.0291 0.4195 0 0 -0 0 9.9351 -2.2114 0 0 -0 0 22.3885 -0.4656 0 0 -0 -0.0001 12.643 3.4389 0 0 -0 2.2603 21.606 7.4023 0 0 -12.5014 13.5163 -1.1332 -5.0146 88.1196 14.2451 10.6914 -0.0995 -28.05 -0.2431 -0.00160068 -0.00239207 0.000740045 0.0679 -23.3996 -0.1402 -8.4365e-005 7.00714e-005 -9.52055e-007 0.7932 -9.069 2.5189 9.93923e-017 -1.98785e-016 -1.59028e-015 -0.8272 -3.3923 0.5977 9.93923e-017 -5.96354e-016 -1.59028e-015 -0.5649 -2.3158 0.4082 -9.93923e-017 -5.96354e-016 -1.59028e-015 0.9159 -9.2044 0.2193 9.93923e-017 -1.98785e-016 -1.59028e-015 0.0117 -4.1944 -0.0248 -0.0128176 0.00232552 8.52707e-005 0.0071 -2.3249 -0.0142 9.93923e-017 5.96354e-016 -0 0.6113 -8.7231 -2.0637 9.93923e-017 -1.98785e-016 -1.59028e-015 -0.1927 -3.8059 -0.2383 -0.0160551 0.00299681 0.000857156 -0.1091 -2.1688 -0.1362 -2.48481e-016 0 3.18055e-015 -0.6151 -8.0947 -3.5641 9.93923e-017 -1.98785e-016 -1.59028e-015 -0.4882 -2.341 -0.6462 -0.0125865 0.0031206 0.00282719 -0.3575 -1.7167 -0.4742 0 1.98785e-016 -0 -1.42 -1.8761 1.4223 9.93923e-017 -1.98785e-016 -1.59028e-015 -1.1471 -3.4929 2.6334 9.93923e-017 -5.96354e-016 -1.59028e-015 -0.823 -2.3 1.6571 -9.93923e-017 -5.96354e-016 -1.59028e-015 -2.2603 21.606 7.4023 -0.865644 0.16582 7.03859 -13.5187 -1.1334 -5.0155 -88.0329 10.2057 -10.5567 0.0994 -28.0499 -0.2431 0.0015593 -0.00248883 -0.000788628 -0.0679 -23.3996 -0.1402 7.87605e-005 4.10553e-005 1.24965e-005 -0.7932 -9.0691 2.5189 -3.97569e-016 -7.95139e-016 3.18055e-015 0.8272 -3.3923 0.5977 -1.98785e-016 -3.97569e-016 3.18055e-015 0.565 -2.3158 0.4082 -1.98785e-016 0 3.18055e-015 -0.916 -9.2044 0.2193 -3.97569e-016 -7.95139e-016 3.18055e-015 -0.0117 -4.1944 -0.0248 0.0129473 0.00231697 -8.70038e-005 -0.0071 -2.3249 -0.0142 9.93923e-017 -7.95139e-016 1.59028e-015 -0.6113 -8.7231 -2.0637 -3.97569e-016 -7.95139e-016 3.18055e-015 0.1927 -3.8059 -0.2383 0.0163314 0.00303369 -0.000872333 0.1091 -2.1688 -0.1362 3.97569e-016 7.95139e-016 -3.18055e-015 0.6151 -8.0947 -3.564 -3.97569e-016 -7.95139e-016 3.18055e-015 0.4882 -2.341 -0.6462 0.0145763 0.00367772 -0.00326275 0.3574 -1.7166 -0.4742 9.93923e-017 -3.97569e-016 -0 1.4199 -1.8761 1.4221 -3.97569e-016 -7.95139e-016 3.18055e-015 1.1472 -3.4929 2.6336 -1.98785e-016 -3.97569e-016 3.18055e-015 0.8229 -2.3 1.6571 -1.98785e-016 0 3.18055e-015 -9.412 3.9771 -0.7758 3.42482 1.32465 -0.0626183 -0.7531 -40.938 0 0.000117508 0.717283 0.000978199 0 -40.1986 0 -3.4257 -2.04197 -0.0604716 8.88178e-016 -4.4182 9.239 6.47761e-025 0 -0 9.4119 3.9773 -0.7758 -3.42483 1.34017 0.0627307 0.7532 -40.9383 -2.22045e-016 -0.000193936 0.682302 -0.0013703 -8.88179e-016 -40.1986 0 3.42574 -2.02253 0.0595886 -8.88178e-016 -4.4182 9.239 -8.45714e-024 0 -7.40531e-025 
2.62717 21.8489 30.4712 -8.50848e-015 12.0025 -180 0 8.7983 -4.7612 -0.161854 9.0897 -0.148373 4.44089e-016 8.0291 0.4195 -0.305401 18.1798 -0.275666 -4.44089e-016 9.9351 -2.2114 -0.305402 18.1799 -0.275667 4.44089e-016 22.3885 -0.4656 3.28356e-006 -15.0018 2.4699e-006 -0.0001 12.643 3.4389 7.31805e-008 -2.42892 1.35103e-007 2.2603 21.606 7.4023 -18.316 -15.6415 34.2713 13.5163 -1.1332 -5.0146 140.729 -79.5887 113.966 -0.0995 -28.05 -0.2431 -94.9991 -58.7262 -76.6114 0.0679 -23.3996 -0.1402 1.43266 25.4143 71.3701 0.7932 -9.06901 2.5189 3.18055e-015 -1.59028e-015 3.97569e-015 -0.8272 -3.3923 0.5977 -3.43209e-006 -8.16703e-007 3.65016e-006 -0.5649 -2.3158 0.4082 3.18055e-015 -1.59028e-015 2.78299e-015 0.9159 -9.20441 0.2193 3.18055e-015 -1.59028e-015 3.97569e-015 0.0117 -4.1944 -0.0248 -0.0128176 0.0023341 9.43286e-005 0.0071 -2.3249 -0.0142 -3.18055e-015 -3.18055e-015 -2.38542e-015 0.6113 -8.72311 -2.0637 3.18055e-015 -1.59028e-015 3.97569e-015 -0.1927 -3.8059 -0.2383 -0.0160752 0.00299461 0.000849336 -0.1091 -2.1688 -0.1362 -1.27222e-014 0 1.19271e-015 -0.6151 -8.09471 -3.5641 3.18055e-015 -1.59028e-015 3.97569e-015 -0.4882 -2.341 -0.6462 -0.0126129 0.00315467 0.0028316 -0.3575 -1.7167 -0.4742 3.18055e-015 -1.59028e-015 -4.77083e-015 -1.42 -1.8761 1.4223 3.18055e-015 -1.59028e-015 3.97569e-015 -1.1471 -3.4929 2.6334 -3.43209e-006 -8.16703e-007 3.65016e-006 -0.823 -2.3 1.6571 3.18055e-015 -1.59028e-015 2.78299e-015 -2.2603 21.606 7.4023 22.1867 -16.8189 -53.3544 -13.5187 -1.1334 -5.0155 163.83 -82.5061 -167.79 0.0994 -28.0499 -0.2431 114.625 -53.8166 93.9737 -0.0679 -23.3996 -0.1402 -1.85622 26.4005 -76.8309 -0.7932 -9.0691 2.5189 -1.85446e-006 -4.40564e-006 -4.33394e-006 0.8272 -3.3923 0.5977 -2.83233e-006 2.73241e-007 1.9691e-006 0.565 -2.3158 0.4082 -3.86551e-006 1.60547e-006 2.05684e-006 -0.916 -9.2044 0.2193 -1.85446e-006 -4.40564e-006 -4.33394e-006 -0.0117 -4.1944 -0.0248 0.0129388 0.00231644 -8.31098e-005 -0.0071 -2.3249 -0.0142 -3.25256e-006 1.30946e-006 4.74468e-007 -0.6113 -8.7231 -2.0637 -1.85446e-006 -4.40564e-006 -4.33394e-006 0.1927 -3.8059 -0.2383 0.0163326 0.00302237 -0.000872995 0.1091 -2.1688 -0.1362 -1.20571e-006 3.64944e-007 1.73172e-006 0.6151 -8.0947 -3.564 -1.85446e-006 -4.40564e-006 -4.33394e-006 0.4882 -2.341 -0.6462 0.014616 0.00369898 -0.00326358 0.3574 -1.7166 -0.4742 -4.20508e-007 -3.90249e-007 -1.49449e-006 1.4199 -1.8761 1.4221 -1.85446e-006 -4.40564e-006 -4.33394e-006 1.1472 -3.4929 2.6336 -2.83233e-006 2.73241e-007 1.9691e-006 0.8229 -2.3 1.6571 -3.86551e-006 1.60547e-006 2.05684e-006 -9.412 3.9771 -0.7758 -8.5008 -3.32376 -18.4533 -0.7531 -40.938 0 -164.404 54.6692 163.166 0 -40.1986 3.55271e-015 14.8665 28.2636 -15.6574 0 -4.4182 9.239 -5.2383e-007 -2.62662e-008 -6.50669e-007 9.4119 3.9773 -0.7758 7.44496 -4.8317 18.4255 0.7532 -40.9383 -3.55271e-015 164.292 55.5379 -163.149 0 -40.1986 3.55271e-015 -16.3366 30.063 17.5805 0 -4.4182 9.239 1.32639e-006 -7.65537e-006 -2.13692e-007 
2.62717 21.8487 30.4716 -8.50815e-015 12 -180 0 8.7983 -4.7612 -0.162539 8.86223 -0.146855 0 8.0291 0.4195 -0.307391 17.7249 -0.272899 -4.44089e-016 9.9351 -2.2114 -0.307391 17.7249 -0.2729 0 22.3885 -0.4656 1.51319e-006 -13.9269 1.35823e-006 -0.0001 12.643 3.4389 -3.76557e-008 -4.83354 1.52441e-007 2.2603 21.606 7.4023 -18.7099 -14.6754 34.4767 13.5163 -1.1332 -5.0146 140.729 -79.5888 113.967 -0.0995 -28.05 -0.2431 -94.9989 -58.7262 -76.6113 0.0679 -23.3996 -0.1402 1.24338 25.6462 71.1192 0.7932 -9.06901 2.5189 3.18055e-015 4.77083e-015 -5.1684e-015 -0.8272 -3.3923 0.5977 -5.25414e-024 -2.61104e-008 -1.15295e-014 -0.5649 -2.3158 0.4082 3.64147e-031 -4.77083e-015 4.37326e-015 0.9159 -9.20441 0.2193 3.18055e-015 4.77083e-015 -5.1684e-015 0.0117 -4.1944 -0.0248 -0.0127837 0.00231839 8.16198e-005 0.0071 -2.3249 -0.0142 0 0 -8.34896e-015 0.6113 -8.72311 -2.0637 3.18055e-015 4.77083e-015 -5.1684e-015 -0.1927 -3.8059 -0.2383 -0.016082 0.0029986 0.000852785 -0.1091 -2.1688 -0.1362 3.18055e-015 -4.77083e-015 3.97569e-015 -0.6151 -8.09471 -3.5641 3.18055e-015 4.77083e-015 -5.1684e-015 -0.4882 -2.341 -0.6462 -0.0125728 0.00314296 0.00281979 -0.3575 -1.7167 -0.4742 -0 0 3.97569e-015 -1.42 -1.8761 1.4223 3.18055e-015 4.77083e-015 -5.1684e-015 -1.1471 -3.4929 2.6334 -5.25414e-024 -2.61104e-008 -1.15295e-014 -0.823 -2.3 1.6571 3.64147e-031 -4.77083e-015 4.37326e-015 -2.2603 21.606 7.4023 22.4953 -15.9216 -53.7604 -13.5187 -1.1334 -5.0155 163.83 -82.5061 -167.789 0.0994 -28.0499 -0.2431 114.625 -53.8166 93.9737 -0.0679 -23.3996 -0.1402 -1.61721 26.5296 -76.6573 -0.7932 -9.0691 2.5189 3.18055e-015 0 3.97569e-016 0.8272 -3.3923 0.5977 -9.93129e-032 1.59028e-015 3.57812e-015 0.565 -2.3158 0.4082 0 1.59028e-015 -0 -0.916 -9.2044 0.2193 3.18055e-015 0 3.97569e-016 -0.0117 -4.1944 -0.0248 0.0129709 0.00231237 -8.20295e-005 -0.0071 -2.3249 -0.0142 -8.3976e-007 -2.30106e-005 -2.9885e-006 -0.6113 -8.7231 -2.0637 3.18055e-015 0 3.97569e-016 0.1927 -3.8059 -0.2383 0.0163541 0.00302578 -0.000879936 0.1091 -2.1688 -0.1362 6.36111e-015 -7.95139e-015 -5.1684e-015 0.6151 -8.0947 -3.564 3.18055e-015 0 3.97569e-016 0.4882 -2.341 -0.6462 0.0145983 0.00366272 -0.00326544 0.3574 -1.7166 -0.4742 -9.6559e-007 1.09381e-005 6.30446e-006 1.4199 -1.8761 1.4221 3.18055e-015 0 3.97569e-016 1.1472 -3.4929 2.6336 -9.93129e-032 1.59028e-015 3.57812e-015 0.8229 -2.3 1.6571 0 1.59028e-015 -0 -9.412 3.9771 -0.7758 -8.50081 -3.32382 -18.4533 -0.7531 -40.938 0 -164.404 54.6691 163.166 -7.10543e-015 -40.1986 3.55271e-015 14.8665 28.2636 -15.6574 3.55271e-015 -4.4182 9.239 2.3487e-006 3.22635e-006 -2.2005e-006 9.4119 3.9773 -0.7758 7.44497 -4.83171 18.4255 0.7532 -40.9383 0 164.292 55.5379 -163.149 -3.55271e-015 -40.1986 0 -16.3366 30.0629 17.5805 3.55271e-015 -4.4182 9.239 5.23582e-007 -1.30461e-008 6.50767e-007 
2.62717 21.8487 30.4716 -8.50815e-015 12 -180 0 8.7983 -4.7612 -0.163146 8.63316 -0.145301 0 8.0291 0.4195 -0.309216 17.2667 -0.27009 0 9.9351 -2.2114 -0.309217 17.2667 -0.270091 0 22.3885 -0.4656 1.57718e-006 -12.8511 1.47787e-006 -0.0001 12.643 3.4389 -2.71235e-007 -7.25006 -6.98782e-008 2.2603 21.606 7.4023 -19.1061 -13.7098 34.6883 13.5163 -1.1332 -5.0146 140.729 -79.5887 113.967 -0.0995 -28.05 -0.2431 -94.999 -58.7262 -76.6113 0.0679 -23.3996 -0.1402 1.05486 25.8789 70.8686 0.7932 -9.069 2.5189 -3.18055e-015 -1.59028e-015 -4.77083e-015 -0.8272 -3.3923 0.5977 -6.36111e-015 1.59028e-015 -3.18055e-015 -0.5649 -2.3158 0.4082 -6.36111e-015 4.77083e-015 -5.56597e-015 0.9159 -9.2044 0.2193 -3.18055e-015 -1.59028e-015 -4.77083e-015 0.0117 -4.1944 -0.0248 -0.0128285 0.00232232 8.38928e-005 0.0071 -2.3249 -0.0142 6.36111e-015 -1.11319e-014 3.53837e-014 0.6113 -8.7231 -2.0637 -3.18055e-015 -1.59028e-015 -4.77083e-015 -0.1927 -3.8059 -0.2383 -0.0160141 0.00298264 0.000859174 -0.1091 -2.1688 -0.1362 3.18055e-015 -1.59028e-014 3.97569e-016 -0.6151 -8.0947 -3.5641 -3.18055e-015 -1.59028e-015 -4.77083e-015 -0.4882 -2.341 -0.6462 -0.0125913 0.00311613 0.0028306 -0.3575 -1.7167 -0.4742 3.21261e-006 1.91479e-005 -5.05186e-007 -1.42 -1.8761 1.4223 -3.18055e-015 -1.59028e-015 -4.77083e-015 -1.1471 -3.4929 2.6334 -6.36111e-015 1.59028e-015 -3.18055e-015 -0.823 -2.3 1.6571 -6.36111e-015 4.77083e-015 -5.56597e-015 -2.2603 21.606 7.4023 22.8094 -15.0256 -54.17 -13.5187 -1.1334 -5.0155 163.83 -82.5061 -167.789 0.0994 -28.0499 -0.2431 114.625 -53.8166 93.9737 -0.0679 -23.3996 -0.1402 -1.37836 26.6593 -76.484 -0.7932 -9.0691 2.5189 -1.09732e-006 3.42494e-006 -7.55619e-006 0.8272 -3.3923 0.5977 3.83949e-006 -1.38339e-006 -2.06828e-006 0.565 -2.3158 0.4082 7.90824e-007 -8.06282e-007 -3.23142e-006 -0.916 -9.2044 0.2193 -1.09732e-006 3.42494e-006 -7.55619e-006 -0.0117 -4.1944 -0.0248 0.012935 0.00231323 -8.48593e-005 -0.0071 -2.3249 -0.0142 1.62952e-006 -1.48753e-006 -2.43667e-007 -0.6113 -8.7231 -2.0637 -1.09732e-006 3.42494e-006 -7.55619e-006 0.1927 -3.8059 -0.2383 0.0163337 0.00304485 -0.000867061 0.1091 -2.1688 -0.1362 4.46898e-006 -3.6714e-007 -2.22478e-006 0.6151 -8.0947 -3.564 -1.09732e-006 3.42494e-006 -7.55619e-006 0.4882 -2.341 -0.6462 0.0145471 0.00366948 -0.00325619 0.3574 -1.7166 -0.4742 3.18055e-015 3.18055e-015 -1.98785e-015 1.4199 -1.8761 1.4221 -1.09732e-006 3.42494e-006 -7.55619e-006 1.1472 -3.4929 2.6336 3.83949e-006 -1.38339e-006 -2.06828e-006 0.8229 -2.3 1.6571 7.90824e-007 -8.06282e-007 -3.23142e-006 -9.412 3.9771 -0.7758 -8.50081 -3.32382 -18.4533 -0.7531 -40.938 3.55271e-015 -164.404 54.6691 163.166 0 -40.1986 -3.55271e-015 14.8665 28.2636 -15.6574 0 -4.4182 9.239 -3.53113e-031 -6.36111e-015 -3.18055e-015 9.4119 3.9773 -0.7758 7.44497 -4.83169 18.4255 0.7532 -40.9383 -3.55271e-015 164.292 55.5379 -163.149 -1.77636e-015 -40.1986 0 -16.3366 30.0629 17.5805 0 -4.4182 9.239 -2.22161e-006 -1.59495e-008 -2.01394e-007 
